solid OpenSCAD_Model
  facet normal -0.989821 -0.142315 0
    outer loop
      vertex 1.7 7 -1.5
      vertex 1.63114 7.47894 1.5
      vertex 1.63114 7.47894 -1.5
    endloop
  endfacet
  facet normal -0.989821 -0.142315 0
    outer loop
      vertex 1.63114 7.47894 1.5
      vertex 1.7 7 -1.5
      vertex 1.7 7 1.5
    endloop
  endfacet
  facet normal 0.281732 -0.959493 0
    outer loop
      vertex -0.706205 8.54637 -1.5
      vertex -0.241935 8.6827 1.5
      vertex -0.706205 8.54637 1.5
    endloop
  endfacet
  facet normal 0.281732 -0.959493 0
    outer loop
      vertex -0.241935 8.6827 1.5
      vertex -0.706205 8.54637 -1.5
      vertex -0.241935 8.6827 -1.5
    endloop
  endfacet
  facet normal -0.281732 0.959493 0
    outer loop
      vertex 0.706205 5.45362 -1.5
      vertex 0.241935 5.3173 1.5
      vertex 0.706205 5.45362 1.5
    endloop
  endfacet
  facet normal -0.281732 0.959493 0
    outer loop
      vertex 0.241935 5.3173 1.5
      vertex 0.706205 5.45362 -1.5
      vertex 0.241935 5.3173 -1.5
    endloop
  endfacet
  facet normal -0.540641 0.841253 0
    outer loop
      vertex 1.11326 5.71523 -1.5
      vertex 0.706205 5.45362 1.5
      vertex 1.11326 5.71523 1.5
    endloop
  endfacet
  facet normal -0.540641 0.841253 0
    outer loop
      vertex 0.706205 5.45362 1.5
      vertex 1.11326 5.71523 -1.5
      vertex 0.706205 5.45362 -1.5
    endloop
  endfacet
  facet normal -0.540641 -0.841253 0
    outer loop
      vertex 0.706205 8.54637 -1.5
      vertex 1.11326 8.28477 1.5
      vertex 0.706205 8.54637 1.5
    endloop
  endfacet
  facet normal -0.540641 -0.841253 -0
    outer loop
      vertex 1.11326 8.28477 1.5
      vertex 0.706205 8.54637 -1.5
      vertex 1.11326 8.28477 -1.5
    endloop
  endfacet
  facet normal -0.909632 -0.415414 0
    outer loop
      vertex 1.63114 7.47894 -1.5
      vertex 1.43013 7.91909 1.5
      vertex 1.43013 7.91909 -1.5
    endloop
  endfacet
  facet normal -0.909632 -0.415414 0
    outer loop
      vertex 1.43013 7.91909 1.5
      vertex 1.63114 7.47894 -1.5
      vertex 1.63114 7.47894 1.5
    endloop
  endfacet
  facet normal -0.281732 -0.959493 0
    outer loop
      vertex 0.241935 8.6827 -1.5
      vertex 0.706205 8.54637 1.5
      vertex 0.241935 8.6827 1.5
    endloop
  endfacet
  facet normal -0.281732 -0.959493 -0
    outer loop
      vertex 0.706205 8.54637 1.5
      vertex 0.241935 8.6827 -1.5
      vertex 0.706205 8.54637 -1.5
    endloop
  endfacet
  facet normal 0.755749 -0.654861 0
    outer loop
      vertex -1.43013 7.91909 1.5
      vertex -1.11326 8.28477 -1.5
      vertex -1.11326 8.28477 1.5
    endloop
  endfacet
  facet normal 0.755749 -0.654861 0
    outer loop
      vertex -1.11326 8.28477 -1.5
      vertex -1.43013 7.91909 1.5
      vertex -1.43013 7.91909 -1.5
    endloop
  endfacet
  facet normal 0.540641 -0.841253 0
    outer loop
      vertex -1.11326 8.28477 -1.5
      vertex -0.706205 8.54637 1.5
      vertex -1.11326 8.28477 1.5
    endloop
  endfacet
  facet normal 0.540641 -0.841253 0
    outer loop
      vertex -0.706205 8.54637 1.5
      vertex -1.11326 8.28477 -1.5
      vertex -0.706205 8.54637 -1.5
    endloop
  endfacet
  facet normal -0.755749 -0.654861 0
    outer loop
      vertex 1.43013 7.91909 -1.5
      vertex 1.11326 8.28477 1.5
      vertex 1.11326 8.28477 -1.5
    endloop
  endfacet
  facet normal -0.755749 -0.654861 0
    outer loop
      vertex 1.11326 8.28477 1.5
      vertex 1.43013 7.91909 -1.5
      vertex 1.43013 7.91909 1.5
    endloop
  endfacet
  facet normal 0 -1 0
    outer loop
      vertex -0.241935 8.6827 -1.5
      vertex 0.241935 8.6827 1.5
      vertex -0.241935 8.6827 1.5
    endloop
  endfacet
  facet normal 0 -1 -0
    outer loop
      vertex 0.241935 8.6827 1.5
      vertex -0.241935 8.6827 -1.5
      vertex 0.241935 8.6827 -1.5
    endloop
  endfacet
  facet normal 0.909632 -0.415414 0
    outer loop
      vertex -1.63114 7.47894 1.5
      vertex -1.43013 7.91909 -1.5
      vertex -1.43013 7.91909 1.5
    endloop
  endfacet
  facet normal 0.909632 -0.415414 0
    outer loop
      vertex -1.43013 7.91909 -1.5
      vertex -1.63114 7.47894 1.5
      vertex -1.63114 7.47894 -1.5
    endloop
  endfacet
  facet normal 0.989821 -0.142315 0
    outer loop
      vertex -1.7 7 1.5
      vertex -1.63114 7.47894 -1.5
      vertex -1.63114 7.47894 1.5
    endloop
  endfacet
  facet normal 0.989821 -0.142315 0
    outer loop
      vertex -1.63114 7.47894 -1.5
      vertex -1.7 7 1.5
      vertex -1.7 7 -1.5
    endloop
  endfacet
  facet normal 0.989821 0.142315 0
    outer loop
      vertex -1.63114 6.52105 1.5
      vertex -1.7 7 -1.5
      vertex -1.7 7 1.5
    endloop
  endfacet
  facet normal 0.989821 0.142315 0
    outer loop
      vertex -1.7 7 -1.5
      vertex -1.63114 6.52105 1.5
      vertex -1.63114 6.52105 -1.5
    endloop
  endfacet
  facet normal -0.989821 0.142315 0
    outer loop
      vertex 1.63114 6.52105 -1.5
      vertex 1.7 7 1.5
      vertex 1.7 7 -1.5
    endloop
  endfacet
  facet normal -0.989821 0.142315 0
    outer loop
      vertex 1.7 7 1.5
      vertex 1.63114 6.52105 -1.5
      vertex 1.63114 6.52105 1.5
    endloop
  endfacet
  facet normal -0.755749 0.654861 0
    outer loop
      vertex 1.11326 5.71523 -1.5
      vertex 1.43013 6.08091 1.5
      vertex 1.43013 6.08091 -1.5
    endloop
  endfacet
  facet normal -0.755749 0.654861 0
    outer loop
      vertex 1.43013 6.08091 1.5
      vertex 1.11326 5.71523 -1.5
      vertex 1.11326 5.71523 1.5
    endloop
  endfacet
  facet normal -0.909632 0.415414 0
    outer loop
      vertex 1.43013 6.08091 -1.5
      vertex 1.63114 6.52105 1.5
      vertex 1.63114 6.52105 -1.5
    endloop
  endfacet
  facet normal -0.909632 0.415414 0
    outer loop
      vertex 1.63114 6.52105 1.5
      vertex 1.43013 6.08091 -1.5
      vertex 1.43013 6.08091 1.5
    endloop
  endfacet
  facet normal 0.281732 0.959493 -0
    outer loop
      vertex -0.241935 5.3173 -1.5
      vertex -0.706205 5.45362 1.5
      vertex -0.241935 5.3173 1.5
    endloop
  endfacet
  facet normal 0.281732 0.959493 0
    outer loop
      vertex -0.706205 5.45362 1.5
      vertex -0.241935 5.3173 -1.5
      vertex -0.706205 5.45362 -1.5
    endloop
  endfacet
  facet normal 0.755749 0.654861 0
    outer loop
      vertex -1.11326 5.71523 1.5
      vertex -1.43013 6.08091 -1.5
      vertex -1.43013 6.08091 1.5
    endloop
  endfacet
  facet normal 0.755749 0.654861 0
    outer loop
      vertex -1.43013 6.08091 -1.5
      vertex -1.11326 5.71523 1.5
      vertex -1.11326 5.71523 -1.5
    endloop
  endfacet
  facet normal 0.909632 0.415414 0
    outer loop
      vertex -1.43013 6.08091 1.5
      vertex -1.63114 6.52105 -1.5
      vertex -1.63114 6.52105 1.5
    endloop
  endfacet
  facet normal 0.909632 0.415414 0
    outer loop
      vertex -1.63114 6.52105 -1.5
      vertex -1.43013 6.08091 1.5
      vertex -1.43013 6.08091 -1.5
    endloop
  endfacet
  facet normal 0.540641 0.841253 -0
    outer loop
      vertex -0.706205 5.45362 -1.5
      vertex -1.11326 5.71523 1.5
      vertex -0.706205 5.45362 1.5
    endloop
  endfacet
  facet normal 0.540641 0.841253 0
    outer loop
      vertex -1.11326 5.71523 1.5
      vertex -0.706205 5.45362 -1.5
      vertex -1.11326 5.71523 -1.5
    endloop
  endfacet
  facet normal 0 1 -0
    outer loop
      vertex 0.241935 5.3173 -1.5
      vertex -0.241935 5.3173 1.5
      vertex 0.241935 5.3173 1.5
    endloop
  endfacet
  facet normal 0 1 0
    outer loop
      vertex -0.241935 5.3173 1.5
      vertex 0.241935 5.3173 -1.5
      vertex -0.241935 5.3173 -1.5
    endloop
  endfacet
  facet normal -0.989821 -0.142315 0
    outer loop
      vertex 1.7 -7 -1.5
      vertex 1.63114 -6.52105 1.5
      vertex 1.63114 -6.52105 -1.5
    endloop
  endfacet
  facet normal -0.989821 -0.142315 0
    outer loop
      vertex 1.63114 -6.52105 1.5
      vertex 1.7 -7 -1.5
      vertex 1.7 -7 1.5
    endloop
  endfacet
  facet normal 0.989821 -0.142315 0
    outer loop
      vertex -1.7 -7 1.5
      vertex -1.63114 -6.52105 -1.5
      vertex -1.63114 -6.52105 1.5
    endloop
  endfacet
  facet normal 0.989821 -0.142315 0
    outer loop
      vertex -1.63114 -6.52105 -1.5
      vertex -1.7 -7 1.5
      vertex -1.7 -7 -1.5
    endloop
  endfacet
  facet normal 0 -1 0
    outer loop
      vertex -0.241935 -5.3173 -1.5
      vertex 0.241935 -5.3173 1.5
      vertex -0.241935 -5.3173 1.5
    endloop
  endfacet
  facet normal 0 -1 -0
    outer loop
      vertex 0.241935 -5.3173 1.5
      vertex -0.241935 -5.3173 -1.5
      vertex 0.241935 -5.3173 -1.5
    endloop
  endfacet
  facet normal 0 1 -0
    outer loop
      vertex 0.241935 -8.6827 -1.5
      vertex -0.241935 -8.6827 1.5
      vertex 0.241935 -8.6827 1.5
    endloop
  endfacet
  facet normal 0 1 0
    outer loop
      vertex -0.241935 -8.6827 1.5
      vertex 0.241935 -8.6827 -1.5
      vertex -0.241935 -8.6827 -1.5
    endloop
  endfacet
  facet normal -0.281732 0.959493 0
    outer loop
      vertex 0.706205 -8.54637 -1.5
      vertex 0.241935 -8.6827 1.5
      vertex 0.706205 -8.54637 1.5
    endloop
  endfacet
  facet normal -0.281732 0.959493 0
    outer loop
      vertex 0.241935 -8.6827 1.5
      vertex 0.706205 -8.54637 -1.5
      vertex 0.241935 -8.6827 -1.5
    endloop
  endfacet
  facet normal -0.540641 -0.841253 0
    outer loop
      vertex 0.706205 -5.45362 -1.5
      vertex 1.11326 -5.71523 1.5
      vertex 0.706205 -5.45362 1.5
    endloop
  endfacet
  facet normal -0.540641 -0.841253 -0
    outer loop
      vertex 1.11326 -5.71523 1.5
      vertex 0.706205 -5.45362 -1.5
      vertex 1.11326 -5.71523 -1.5
    endloop
  endfacet
  facet normal -0.909632 -0.415414 0
    outer loop
      vertex 1.63114 -6.52105 -1.5
      vertex 1.43013 -6.08091 1.5
      vertex 1.43013 -6.08091 -1.5
    endloop
  endfacet
  facet normal -0.909632 -0.415414 0
    outer loop
      vertex 1.43013 -6.08091 1.5
      vertex 1.63114 -6.52105 -1.5
      vertex 1.63114 -6.52105 1.5
    endloop
  endfacet
  facet normal -0.281732 -0.959493 0
    outer loop
      vertex 0.241935 -5.3173 -1.5
      vertex 0.706205 -5.45362 1.5
      vertex 0.241935 -5.3173 1.5
    endloop
  endfacet
  facet normal -0.281732 -0.959493 -0
    outer loop
      vertex 0.706205 -5.45362 1.5
      vertex 0.241935 -5.3173 -1.5
      vertex 0.706205 -5.45362 -1.5
    endloop
  endfacet
  facet normal 0.755749 -0.654861 0
    outer loop
      vertex -1.43013 -6.08091 1.5
      vertex -1.11326 -5.71523 -1.5
      vertex -1.11326 -5.71523 1.5
    endloop
  endfacet
  facet normal 0.755749 -0.654861 0
    outer loop
      vertex -1.11326 -5.71523 -1.5
      vertex -1.43013 -6.08091 1.5
      vertex -1.43013 -6.08091 -1.5
    endloop
  endfacet
  facet normal 0.909632 -0.415414 0
    outer loop
      vertex -1.63114 -6.52105 1.5
      vertex -1.43013 -6.08091 -1.5
      vertex -1.43013 -6.08091 1.5
    endloop
  endfacet
  facet normal 0.909632 -0.415414 0
    outer loop
      vertex -1.43013 -6.08091 -1.5
      vertex -1.63114 -6.52105 1.5
      vertex -1.63114 -6.52105 -1.5
    endloop
  endfacet
  facet normal 0.281732 -0.959493 0
    outer loop
      vertex -0.706205 -5.45362 -1.5
      vertex -0.241935 -5.3173 1.5
      vertex -0.706205 -5.45362 1.5
    endloop
  endfacet
  facet normal 0.281732 -0.959493 0
    outer loop
      vertex -0.241935 -5.3173 1.5
      vertex -0.706205 -5.45362 -1.5
      vertex -0.241935 -5.3173 -1.5
    endloop
  endfacet
  facet normal 0.755749 0.654861 0
    outer loop
      vertex -1.11326 -8.28477 1.5
      vertex -1.43013 -7.91909 -1.5
      vertex -1.43013 -7.91909 1.5
    endloop
  endfacet
  facet normal 0.755749 0.654861 0
    outer loop
      vertex -1.43013 -7.91909 -1.5
      vertex -1.11326 -8.28477 1.5
      vertex -1.11326 -8.28477 -1.5
    endloop
  endfacet
  facet normal -0.755749 -0.654861 0
    outer loop
      vertex 1.43013 -6.08091 -1.5
      vertex 1.11326 -5.71523 1.5
      vertex 1.11326 -5.71523 -1.5
    endloop
  endfacet
  facet normal -0.755749 -0.654861 0
    outer loop
      vertex 1.11326 -5.71523 1.5
      vertex 1.43013 -6.08091 -1.5
      vertex 1.43013 -6.08091 1.5
    endloop
  endfacet
  facet normal 0.540641 -0.841253 0
    outer loop
      vertex -1.11326 -5.71523 -1.5
      vertex -0.706205 -5.45362 1.5
      vertex -1.11326 -5.71523 1.5
    endloop
  endfacet
  facet normal 0.540641 -0.841253 0
    outer loop
      vertex -0.706205 -5.45362 1.5
      vertex -1.11326 -5.71523 -1.5
      vertex -0.706205 -5.45362 -1.5
    endloop
  endfacet
  facet normal -0.989821 0.142315 0
    outer loop
      vertex 1.63114 -7.47894 -1.5
      vertex 1.7 -7 1.5
      vertex 1.7 -7 -1.5
    endloop
  endfacet
  facet normal -0.989821 0.142315 0
    outer loop
      vertex 1.7 -7 1.5
      vertex 1.63114 -7.47894 -1.5
      vertex 1.63114 -7.47894 1.5
    endloop
  endfacet
  facet normal 0.989821 0.142315 0
    outer loop
      vertex -1.63114 -7.47894 1.5
      vertex -1.7 -7 -1.5
      vertex -1.7 -7 1.5
    endloop
  endfacet
  facet normal 0.989821 0.142315 0
    outer loop
      vertex -1.7 -7 -1.5
      vertex -1.63114 -7.47894 1.5
      vertex -1.63114 -7.47894 -1.5
    endloop
  endfacet
  facet normal -0.909632 0.415414 0
    outer loop
      vertex 1.43013 -7.91909 -1.5
      vertex 1.63114 -7.47894 1.5
      vertex 1.63114 -7.47894 -1.5
    endloop
  endfacet
  facet normal -0.909632 0.415414 0
    outer loop
      vertex 1.63114 -7.47894 1.5
      vertex 1.43013 -7.91909 -1.5
      vertex 1.43013 -7.91909 1.5
    endloop
  endfacet
  facet normal -0.540641 0.841253 0
    outer loop
      vertex 1.11326 -8.28477 -1.5
      vertex 0.706205 -8.54637 1.5
      vertex 1.11326 -8.28477 1.5
    endloop
  endfacet
  facet normal -0.540641 0.841253 0
    outer loop
      vertex 0.706205 -8.54637 1.5
      vertex 1.11326 -8.28477 -1.5
      vertex 0.706205 -8.54637 -1.5
    endloop
  endfacet
  facet normal 0.281732 0.959493 -0
    outer loop
      vertex -0.241935 -8.6827 -1.5
      vertex -0.706205 -8.54637 1.5
      vertex -0.241935 -8.6827 1.5
    endloop
  endfacet
  facet normal 0.281732 0.959493 0
    outer loop
      vertex -0.706205 -8.54637 1.5
      vertex -0.241935 -8.6827 -1.5
      vertex -0.706205 -8.54637 -1.5
    endloop
  endfacet
  facet normal 0.909632 0.415414 0
    outer loop
      vertex -1.43013 -7.91909 1.5
      vertex -1.63114 -7.47894 -1.5
      vertex -1.63114 -7.47894 1.5
    endloop
  endfacet
  facet normal 0.909632 0.415414 0
    outer loop
      vertex -1.63114 -7.47894 -1.5
      vertex -1.43013 -7.91909 1.5
      vertex -1.43013 -7.91909 -1.5
    endloop
  endfacet
  facet normal -0.755749 0.654861 0
    outer loop
      vertex 1.11326 -8.28477 -1.5
      vertex 1.43013 -7.91909 1.5
      vertex 1.43013 -7.91909 -1.5
    endloop
  endfacet
  facet normal -0.755749 0.654861 0
    outer loop
      vertex 1.43013 -7.91909 1.5
      vertex 1.11326 -8.28477 -1.5
      vertex 1.11326 -8.28477 1.5
    endloop
  endfacet
  facet normal 0.540641 0.841253 -0
    outer loop
      vertex -0.706205 -8.54637 -1.5
      vertex -1.11326 -8.28477 1.5
      vertex -0.706205 -8.54637 1.5
    endloop
  endfacet
  facet normal 0.540641 0.841253 0
    outer loop
      vertex -1.11326 -8.28477 1.5
      vertex -0.706205 -8.54637 -1.5
      vertex -1.11326 -8.28477 -1.5
    endloop
  endfacet
  facet normal 0.996195 0.087156 0
    outer loop
      vertex 11 0 1.5
      vertex 10.8329 1.91013 -1.5
      vertex 10.8329 1.91013 1.5
    endloop
  endfacet
  facet normal 0.996195 0.087156 0
    outer loop
      vertex 10.8329 1.91013 -1.5
      vertex 11 0 1.5
      vertex 11 0 -1.5
    endloop
  endfacet
  facet normal -0.996195 0.087156 0
    outer loop
      vertex -11 0 -1.5
      vertex -10.8329 1.91013 1.5
      vertex -10.8329 1.91013 -1.5
    endloop
  endfacet
  facet normal -0.996195 0.087156 0
    outer loop
      vertex -10.8329 1.91013 1.5
      vertex -11 0 -1.5
      vertex -11 0 1.5
    endloop
  endfacet
  facet normal 0.087156 0.996195 -0
    outer loop
      vertex 1.91013 10.8329 -1.5
      vertex 0 11 1.5
      vertex 1.91013 10.8329 1.5
    endloop
  endfacet
  facet normal 0.087156 0.996195 0
    outer loop
      vertex 0 11 1.5
      vertex 1.91013 10.8329 -1.5
      vertex 0 11 -1.5
    endloop
  endfacet
  facet normal -0.087156 -0.996195 0
    outer loop
      vertex -1.91013 -10.8329 -1.5
      vertex 0 -11 1.5
      vertex -1.91013 -10.8329 1.5
    endloop
  endfacet
  facet normal -0.087156 -0.996195 -0
    outer loop
      vertex 0 -11 1.5
      vertex -1.91013 -10.8329 -1.5
      vertex 0 -11 -1.5
    endloop
  endfacet
  facet normal 0.707107 0.707107 0
    outer loop
      vertex 8.42649 7.07066 1.5
      vertex 7.07066 8.42649 -1.5
      vertex 7.07066 8.42649 1.5
    endloop
  endfacet
  facet normal 0.707107 0.707107 0
    outer loop
      vertex 7.07066 8.42649 -1.5
      vertex 8.42649 7.07066 1.5
      vertex 8.42649 7.07066 -1.5
    endloop
  endfacet
  facet normal -0.573576 0.819152 0
    outer loop
      vertex -5.5 9.52628 -1.5
      vertex -7.07066 8.42649 1.5
      vertex -5.5 9.52628 1.5
    endloop
  endfacet
  facet normal -0.573576 0.819152 0
    outer loop
      vertex -7.07066 8.42649 1.5
      vertex -5.5 9.52628 -1.5
      vertex -7.07066 8.42649 -1.5
    endloop
  endfacet
  facet normal -0.258819 0.965926 0
    outer loop
      vertex -1.91013 10.8329 -1.5
      vertex -3.76222 10.3366 1.5
      vertex -1.91013 10.8329 1.5
    endloop
  endfacet
  facet normal -0.258819 0.965926 0
    outer loop
      vertex -3.76222 10.3366 1.5
      vertex -1.91013 10.8329 -1.5
      vertex -3.76222 10.3366 -1.5
    endloop
  endfacet
  facet normal 0.707107 -0.707107 0
    outer loop
      vertex 7.07066 -8.42649 1.5
      vertex 8.42649 -7.07066 -1.5
      vertex 8.42649 -7.07066 1.5
    endloop
  endfacet
  facet normal 0.707107 -0.707107 0
    outer loop
      vertex 8.42649 -7.07066 -1.5
      vertex 7.07066 -8.42649 1.5
      vertex 7.07066 -8.42649 -1.5
    endloop
  endfacet
  facet normal -0 0 -1
    outer loop
      vertex 10.3366 -3.76222 -1.5
      vertex 1.11326 -5.71523 -1.5
      vertex 10.8329 -1.91013 -1.5
    endloop
  endfacet
  facet normal 0 0 -1
    outer loop
      vertex 11 0 -1.5
      vertex 1.63114 6.52105 -1.5
      vertex 1.7 7 -1.5
    endloop
  endfacet
  facet normal -0 0 -1
    outer loop
      vertex 10.8329 -1.91013 -1.5
      vertex 1.11326 -5.71523 -1.5
      vertex 11 0 -1.5
    endloop
  endfacet
  facet normal 0 0 -1
    outer loop
      vertex 11 0 -1.5
      vertex 1.43013 6.08091 -1.5
      vertex 1.63114 6.52105 -1.5
    endloop
  endfacet
  facet normal 0 0 -1
    outer loop
      vertex 0.706205 -5.45362 -1.5
      vertex 11 0 -1.5
      vertex 1.11326 -5.71523 -1.5
    endloop
  endfacet
  facet normal 0 0 -1
    outer loop
      vertex 11 0 -1.5
      vertex 1.11326 5.71523 -1.5
      vertex 1.43013 6.08091 -1.5
    endloop
  endfacet
  facet normal 0 0 -1
    outer loop
      vertex 0.706205 5.45362 -1.5
      vertex 11 0 -1.5
      vertex 0.706205 -5.45362 -1.5
    endloop
  endfacet
  facet normal 0 0 -1
    outer loop
      vertex 11 0 -1.5
      vertex 0.706205 5.45362 -1.5
      vertex 1.11326 5.71523 -1.5
    endloop
  endfacet
  facet normal 0 0 -1
    outer loop
      vertex 0.241935 -5.3173 -1.5
      vertex 0.706205 5.45362 -1.5
      vertex 0.706205 -5.45362 -1.5
    endloop
  endfacet
  facet normal 0 0 -1
    outer loop
      vertex 0.241935 -5.3173 -1.5
      vertex 0.241935 5.3173 -1.5
      vertex 0.706205 5.45362 -1.5
    endloop
  endfacet
  facet normal 0 0 -1
    outer loop
      vertex -0.241935 -5.3173 -1.5
      vertex 0.241935 5.3173 -1.5
      vertex 0.241935 -5.3173 -1.5
    endloop
  endfacet
  facet normal 0 0 -1
    outer loop
      vertex -0.241935 -5.3173 -1.5
      vertex -0.241935 5.3173 -1.5
      vertex 0.241935 5.3173 -1.5
    endloop
  endfacet
  facet normal 0 0 -1
    outer loop
      vertex -0.706205 -5.45362 -1.5
      vertex -0.241935 5.3173 -1.5
      vertex -0.241935 -5.3173 -1.5
    endloop
  endfacet
  facet normal 0 0 -1
    outer loop
      vertex -0.706205 -5.45362 -1.5
      vertex -0.706205 5.45362 -1.5
      vertex -0.241935 5.3173 -1.5
    endloop
  endfacet
  facet normal 0 0 -1
    outer loop
      vertex -11 0 -1.5
      vertex -0.706205 -5.45362 -1.5
      vertex -1.11326 -5.71523 -1.5
    endloop
  endfacet
  facet normal 0 0 -1
    outer loop
      vertex -0.706205 -5.45362 -1.5
      vertex -11 0 -1.5
      vertex -0.706205 5.45362 -1.5
    endloop
  endfacet
  facet normal 0 0 -1
    outer loop
      vertex -10.3366 -3.76222 -1.5
      vertex -1.11326 -5.71523 -1.5
      vertex -1.43013 -6.08091 -1.5
    endloop
  endfacet
  facet normal -0 0 -1
    outer loop
      vertex -0.706205 5.45362 -1.5
      vertex -11 0 -1.5
      vertex -1.11326 5.71523 -1.5
    endloop
  endfacet
  facet normal 0 0 -1
    outer loop
      vertex -8.42649 -7.07066 -1.5
      vertex -1.43013 -6.08091 -1.5
      vertex -1.63114 -6.52105 -1.5
    endloop
  endfacet
  facet normal 0 -0 -1
    outer loop
      vertex -10.8329 1.91013 -1.5
      vertex -1.11326 5.71523 -1.5
      vertex -11 0 -1.5
    endloop
  endfacet
  facet normal 0 0 -1
    outer loop
      vertex -7.07066 -8.42649 -1.5
      vertex -1.63114 -6.52105 -1.5
      vertex -1.7 -7 -1.5
    endloop
  endfacet
  facet normal 0 -0 -1
    outer loop
      vertex -10.3366 3.76222 -1.5
      vertex -1.11326 5.71523 -1.5
      vertex -10.8329 1.91013 -1.5
    endloop
  endfacet
  facet normal -0 0 -1
    outer loop
      vertex 9.52628 -5.5 -1.5
      vertex 1.43013 -6.08091 -1.5
      vertex 10.3366 -3.76222 -1.5
    endloop
  endfacet
  facet normal 0 0 -1
    outer loop
      vertex 8.42649 -7.07066 -1.5
      vertex 1.43013 -6.08091 -1.5
      vertex 9.52628 -5.5 -1.5
    endloop
  endfacet
  facet normal 0 0 -1
    outer loop
      vertex 1.11326 -5.71523 -1.5
      vertex 10.3366 -3.76222 -1.5
      vertex 1.43013 -6.08091 -1.5
    endloop
  endfacet
  facet normal 0 0 -1
    outer loop
      vertex 1.43013 -6.08091 -1.5
      vertex 8.42649 -7.07066 -1.5
      vertex 1.63114 -6.52105 -1.5
    endloop
  endfacet
  facet normal 0 0 -1
    outer loop
      vertex 11 0 -1.5
      vertex 1.7 7 -1.5
      vertex 10.8329 1.91013 -1.5
    endloop
  endfacet
  facet normal 0 0 -1
    outer loop
      vertex 7.07066 -8.42649 -1.5
      vertex 1.63114 -6.52105 -1.5
      vertex 8.42649 -7.07066 -1.5
    endloop
  endfacet
  facet normal 0 0 -1
    outer loop
      vertex 10.8329 1.91013 -1.5
      vertex 1.7 7 -1.5
      vertex 10.3366 3.76222 -1.5
    endloop
  endfacet
  facet normal 0 0 -1
    outer loop
      vertex 1.63114 -6.52105 -1.5
      vertex 7.07066 -8.42649 -1.5
      vertex 1.7 -7 -1.5
    endloop
  endfacet
  facet normal 0 0 -1
    outer loop
      vertex 10.3366 3.76222 -1.5
      vertex 1.7 7 -1.5
      vertex 9.52628 5.5 -1.5
    endloop
  endfacet
  facet normal -0 0 -1
    outer loop
      vertex 8.42649 7.07066 -1.5
      vertex 1.7 7 -1.5
      vertex 7.07066 8.42649 -1.5
    endloop
  endfacet
  facet normal 0 0 -1
    outer loop
      vertex 1.7 -7 -1.5
      vertex 7.07066 -8.42649 -1.5
      vertex 5.5 -9.52628 -1.5
    endloop
  endfacet
  facet normal 0 0 -1
    outer loop
      vertex 1.63114 -7.47894 -1.5
      vertex 5.5 -9.52628 -1.5
      vertex 3.76222 -10.3366 -1.5
    endloop
  endfacet
  facet normal 0 0 -1
    outer loop
      vertex 9.52628 5.5 -1.5
      vertex 1.7 7 -1.5
      vertex 8.42649 7.07066 -1.5
    endloop
  endfacet
  facet normal 0 0 -1
    outer loop
      vertex 1.11326 -8.28477 -1.5
      vertex 3.76222 -10.3366 -1.5
      vertex 1.91013 -10.8329 -1.5
    endloop
  endfacet
  facet normal -0 0 -1
    outer loop
      vertex 7.07066 8.42649 -1.5
      vertex 1.7 7 -1.5
      vertex 5.5 9.52628 -1.5
    endloop
  endfacet
  facet normal 0 0 -1
    outer loop
      vertex 1.63114 7.47894 -1.5
      vertex 5.5 9.52628 -1.5
      vertex 1.7 7 -1.5
    endloop
  endfacet
  facet normal 0 0 -1
    outer loop
      vertex 5.5 -9.52628 -1.5
      vertex 1.63114 -7.47894 -1.5
      vertex 1.7 -7 -1.5
    endloop
  endfacet
  facet normal 0 0 -1
    outer loop
      vertex 3.76222 -10.3366 -1.5
      vertex 1.43013 -7.91909 -1.5
      vertex 1.63114 -7.47894 -1.5
    endloop
  endfacet
  facet normal 0 0 -1
    outer loop
      vertex 3.76222 -10.3366 -1.5
      vertex 1.11326 -8.28477 -1.5
      vertex 1.43013 -7.91909 -1.5
    endloop
  endfacet
  facet normal 0 0 -1
    outer loop
      vertex 1.91013 -10.8329 -1.5
      vertex 0.706205 -8.54637 -1.5
      vertex 1.11326 -8.28477 -1.5
    endloop
  endfacet
  facet normal 0 0 -1
    outer loop
      vertex 1.91013 -10.8329 -1.5
      vertex 0.241935 -8.6827 -1.5
      vertex 0.706205 -8.54637 -1.5
    endloop
  endfacet
  facet normal 0 0 -1
    outer loop
      vertex 0 -11 -1.5
      vertex 0.241935 -8.6827 -1.5
      vertex 1.91013 -10.8329 -1.5
    endloop
  endfacet
  facet normal 0 0 -1
    outer loop
      vertex 0 -11 -1.5
      vertex -0.241935 -8.6827 -1.5
      vertex 0.241935 -8.6827 -1.5
    endloop
  endfacet
  facet normal 0 0 -1
    outer loop
      vertex 0 -11 -1.5
      vertex -0.706205 -8.54637 -1.5
      vertex -0.241935 -8.6827 -1.5
    endloop
  endfacet
  facet normal 0 0 -1
    outer loop
      vertex -1.91013 -10.8329 -1.5
      vertex -0.706205 -8.54637 -1.5
      vertex 0 -11 -1.5
    endloop
  endfacet
  facet normal -0 0 -1
    outer loop
      vertex -0.706205 -8.54637 -1.5
      vertex -1.91013 -10.8329 -1.5
      vertex -1.11326 -8.28477 -1.5
    endloop
  endfacet
  facet normal 0 0 -1
    outer loop
      vertex -5.5 -9.52628 -1.5
      vertex -1.63114 -7.47894 -1.5
      vertex -3.76222 -10.3366 -1.5
    endloop
  endfacet
  facet normal -0 0 -1
    outer loop
      vertex -1.43013 -7.91909 -1.5
      vertex -3.76222 -10.3366 -1.5
      vertex -1.63114 -7.47894 -1.5
    endloop
  endfacet
  facet normal -0 0 -1
    outer loop
      vertex -1.11326 -8.28477 -1.5
      vertex -3.76222 -10.3366 -1.5
      vertex -1.43013 -7.91909 -1.5
    endloop
  endfacet
  facet normal 0 0 -1
    outer loop
      vertex -3.76222 -10.3366 -1.5
      vertex -1.11326 -8.28477 -1.5
      vertex -1.91013 -10.8329 -1.5
    endloop
  endfacet
  facet normal -0 0 -1
    outer loop
      vertex 5.5 9.52628 -1.5
      vertex 1.63114 7.47894 -1.5
      vertex 3.76222 10.3366 -1.5
    endloop
  endfacet
  facet normal 0 0 -1
    outer loop
      vertex 1.43013 7.91909 -1.5
      vertex 3.76222 10.3366 -1.5
      vertex 1.63114 7.47894 -1.5
    endloop
  endfacet
  facet normal 0 0 -1
    outer loop
      vertex 1.11326 8.28477 -1.5
      vertex 3.76222 10.3366 -1.5
      vertex 1.43013 7.91909 -1.5
    endloop
  endfacet
  facet normal -0 0 -1
    outer loop
      vertex 3.76222 10.3366 -1.5
      vertex 1.11326 8.28477 -1.5
      vertex 1.91013 10.8329 -1.5
    endloop
  endfacet
  facet normal 0 0 -1
    outer loop
      vertex 0.706205 8.54637 -1.5
      vertex 1.91013 10.8329 -1.5
      vertex 1.11326 8.28477 -1.5
    endloop
  endfacet
  facet normal 0 0 -1
    outer loop
      vertex 0.241935 8.6827 -1.5
      vertex 1.91013 10.8329 -1.5
      vertex 0.706205 8.54637 -1.5
    endloop
  endfacet
  facet normal 0 0 -1
    outer loop
      vertex 0.241935 8.6827 -1.5
      vertex 0 11 -1.5
      vertex 1.91013 10.8329 -1.5
    endloop
  endfacet
  facet normal 0 0 -1
    outer loop
      vertex -0.241935 8.6827 -1.5
      vertex 0 11 -1.5
      vertex 0.241935 8.6827 -1.5
    endloop
  endfacet
  facet normal 0 0 -1
    outer loop
      vertex -0.706205 8.54637 -1.5
      vertex 0 11 -1.5
      vertex -0.241935 8.6827 -1.5
    endloop
  endfacet
  facet normal 0 0 -1
    outer loop
      vertex -1.91013 10.8329 -1.5
      vertex -0.706205 8.54637 -1.5
      vertex -1.11326 8.28477 -1.5
    endloop
  endfacet
  facet normal 0 0 -1
    outer loop
      vertex -3.76222 10.3366 -1.5
      vertex -1.11326 8.28477 -1.5
      vertex -1.43013 7.91909 -1.5
    endloop
  endfacet
  facet normal 0 0 -1
    outer loop
      vertex -0.706205 8.54637 -1.5
      vertex -1.91013 10.8329 -1.5
      vertex 0 11 -1.5
    endloop
  endfacet
  facet normal 0 0 -1
    outer loop
      vertex -3.76222 10.3366 -1.5
      vertex -1.43013 7.91909 -1.5
      vertex -1.63114 7.47894 -1.5
    endloop
  endfacet
  facet normal 0 0 -1
    outer loop
      vertex -5.5 9.52628 -1.5
      vertex -1.63114 7.47894 -1.5
      vertex -1.7 7 -1.5
    endloop
  endfacet
  facet normal -0 0 -1
    outer loop
      vertex -1.63114 -7.47894 -1.5
      vertex -5.5 -9.52628 -1.5
      vertex -1.7 -7 -1.5
    endloop
  endfacet
  facet normal 0 0 -1
    outer loop
      vertex -7.07066 -8.42649 -1.5
      vertex -1.7 -7 -1.5
      vertex -5.5 -9.52628 -1.5
    endloop
  endfacet
  facet normal 0 0 -1
    outer loop
      vertex -1.11326 8.28477 -1.5
      vertex -3.76222 10.3366 -1.5
      vertex -1.91013 10.8329 -1.5
    endloop
  endfacet
  facet normal 0 0 -1
    outer loop
      vertex -1.63114 7.47894 -1.5
      vertex -5.5 9.52628 -1.5
      vertex -3.76222 10.3366 -1.5
    endloop
  endfacet
  facet normal 0 0 -1
    outer loop
      vertex -1.63114 -6.52105 -1.5
      vertex -7.07066 -8.42649 -1.5
      vertex -8.42649 -7.07066 -1.5
    endloop
  endfacet
  facet normal -0 0 -1
    outer loop
      vertex -1.43013 -6.08091 -1.5
      vertex -8.42649 -7.07066 -1.5
      vertex -9.52628 -5.5 -1.5
    endloop
  endfacet
  facet normal 0 0 -1
    outer loop
      vertex -1.7 7 -1.5
      vertex -7.07066 8.42649 -1.5
      vertex -5.5 9.52628 -1.5
    endloop
  endfacet
  facet normal 0 0 -1
    outer loop
      vertex -1.43013 -6.08091 -1.5
      vertex -9.52628 -5.5 -1.5
      vertex -10.3366 -3.76222 -1.5
    endloop
  endfacet
  facet normal 0 0 -1
    outer loop
      vertex -1.63114 6.52105 -1.5
      vertex -7.07066 8.42649 -1.5
      vertex -1.7 7 -1.5
    endloop
  endfacet
  facet normal 0 0 -1
    outer loop
      vertex -1.11326 -5.71523 -1.5
      vertex -10.3366 -3.76222 -1.5
      vertex -10.8329 -1.91013 -1.5
    endloop
  endfacet
  facet normal 0 -0 -1
    outer loop
      vertex -7.07066 8.42649 -1.5
      vertex -1.63114 6.52105 -1.5
      vertex -8.42649 7.07066 -1.5
    endloop
  endfacet
  facet normal 0 0 -1
    outer loop
      vertex -1.11326 -5.71523 -1.5
      vertex -10.8329 -1.91013 -1.5
      vertex -11 0 -1.5
    endloop
  endfacet
  facet normal 0 0 -1
    outer loop
      vertex -1.43013 6.08091 -1.5
      vertex -8.42649 7.07066 -1.5
      vertex -1.63114 6.52105 -1.5
    endloop
  endfacet
  facet normal -0 0 -1
    outer loop
      vertex -1.11326 5.71523 -1.5
      vertex -10.3366 3.76222 -1.5
      vertex -1.43013 6.08091 -1.5
    endloop
  endfacet
  facet normal 0 -0 -1
    outer loop
      vertex -8.42649 7.07066 -1.5
      vertex -1.43013 6.08091 -1.5
      vertex -9.52628 5.5 -1.5
    endloop
  endfacet
  facet normal 0 -0 -1
    outer loop
      vertex -9.52628 5.5 -1.5
      vertex -1.43013 6.08091 -1.5
      vertex -10.3366 3.76222 -1.5
    endloop
  endfacet
  facet normal 0.906308 0.422619 0
    outer loop
      vertex 10.3366 3.76222 1.5
      vertex 9.52628 5.5 -1.5
      vertex 9.52628 5.5 1.5
    endloop
  endfacet
  facet normal 0.906308 0.422619 0
    outer loop
      vertex 9.52628 5.5 -1.5
      vertex 10.3366 3.76222 1.5
      vertex 10.3366 3.76222 -1.5
    endloop
  endfacet
  facet normal 0.965926 0.258819 0
    outer loop
      vertex 10.8329 1.91013 1.5
      vertex 10.3366 3.76222 -1.5
      vertex 10.3366 3.76222 1.5
    endloop
  endfacet
  facet normal 0.965926 0.258819 0
    outer loop
      vertex 10.3366 3.76222 -1.5
      vertex 10.8329 1.91013 1.5
      vertex 10.8329 1.91013 -1.5
    endloop
  endfacet
  facet normal 0.819152 0.573576 0
    outer loop
      vertex 9.52628 5.5 1.5
      vertex 8.42649 7.07066 -1.5
      vertex 8.42649 7.07066 1.5
    endloop
  endfacet
  facet normal 0.819152 0.573576 0
    outer loop
      vertex 8.42649 7.07066 -1.5
      vertex 9.52628 5.5 1.5
      vertex 9.52628 5.5 -1.5
    endloop
  endfacet
  facet normal 0.422618 0.906308 -0
    outer loop
      vertex 5.5 9.52628 -1.5
      vertex 3.76222 10.3366 1.5
      vertex 5.5 9.52628 1.5
    endloop
  endfacet
  facet normal 0.422618 0.906308 0
    outer loop
      vertex 3.76222 10.3366 1.5
      vertex 5.5 9.52628 -1.5
      vertex 3.76222 10.3366 -1.5
    endloop
  endfacet
  facet normal 0.258819 0.965926 -0
    outer loop
      vertex 3.76222 10.3366 -1.5
      vertex 1.91013 10.8329 1.5
      vertex 3.76222 10.3366 1.5
    endloop
  endfacet
  facet normal 0.258819 0.965926 0
    outer loop
      vertex 1.91013 10.8329 1.5
      vertex 3.76222 10.3366 -1.5
      vertex 1.91013 10.8329 -1.5
    endloop
  endfacet
  facet normal 0.573577 0.819152 -0
    outer loop
      vertex 7.07066 8.42649 -1.5
      vertex 5.5 9.52628 1.5
      vertex 7.07066 8.42649 1.5
    endloop
  endfacet
  facet normal 0.573577 0.819152 0
    outer loop
      vertex 5.5 9.52628 1.5
      vertex 7.07066 8.42649 -1.5
      vertex 5.5 9.52628 -1.5
    endloop
  endfacet
  facet normal -0.906308 0.422618 0
    outer loop
      vertex -10.3366 3.76222 -1.5
      vertex -9.52628 5.5 1.5
      vertex -9.52628 5.5 -1.5
    endloop
  endfacet
  facet normal -0.906308 0.422618 0
    outer loop
      vertex -9.52628 5.5 1.5
      vertex -10.3366 3.76222 -1.5
      vertex -10.3366 3.76222 1.5
    endloop
  endfacet
  facet normal -0.965926 0.258819 0
    outer loop
      vertex -10.8329 1.91013 -1.5
      vertex -10.3366 3.76222 1.5
      vertex -10.3366 3.76222 -1.5
    endloop
  endfacet
  facet normal -0.965926 0.258819 0
    outer loop
      vertex -10.3366 3.76222 1.5
      vertex -10.8329 1.91013 -1.5
      vertex -10.8329 1.91013 1.5
    endloop
  endfacet
  facet normal 0 0 1
    outer loop
      vertex 10.3366 3.76222 1.5
      vertex 1.11326 5.71523 1.5
      vertex 10.8329 1.91013 1.5
    endloop
  endfacet
  facet normal 0 0 1
    outer loop
      vertex 11 0 1.5
      vertex 1.63114 -6.52105 1.5
      vertex 1.7 -7 1.5
    endloop
  endfacet
  facet normal 0 0 1
    outer loop
      vertex 10.8329 1.91013 1.5
      vertex 1.11326 5.71523 1.5
      vertex 11 0 1.5
    endloop
  endfacet
  facet normal 0 0 1
    outer loop
      vertex 11 0 1.5
      vertex 1.43013 -6.08091 1.5
      vertex 1.63114 -6.52105 1.5
    endloop
  endfacet
  facet normal -0 0 1
    outer loop
      vertex 0.706205 5.45362 1.5
      vertex 11 0 1.5
      vertex 1.11326 5.71523 1.5
    endloop
  endfacet
  facet normal 0 0 1
    outer loop
      vertex 11 0 1.5
      vertex 1.11326 -5.71523 1.5
      vertex 1.43013 -6.08091 1.5
    endloop
  endfacet
  facet normal 0 0 1
    outer loop
      vertex 0.706205 -5.45362 1.5
      vertex 11 0 1.5
      vertex 0.706205 5.45362 1.5
    endloop
  endfacet
  facet normal 0 0 1
    outer loop
      vertex 11 0 1.5
      vertex 0.706205 -5.45362 1.5
      vertex 1.11326 -5.71523 1.5
    endloop
  endfacet
  facet normal -0 0 1
    outer loop
      vertex 0.241935 5.3173 1.5
      vertex 0.706205 -5.45362 1.5
      vertex 0.706205 5.45362 1.5
    endloop
  endfacet
  facet normal 0 0 1
    outer loop
      vertex 0.241935 5.3173 1.5
      vertex 0.241935 -5.3173 1.5
      vertex 0.706205 -5.45362 1.5
    endloop
  endfacet
  facet normal -0 0 1
    outer loop
      vertex -0.241935 5.3173 1.5
      vertex 0.241935 -5.3173 1.5
      vertex 0.241935 5.3173 1.5
    endloop
  endfacet
  facet normal 0 0 1
    outer loop
      vertex -0.241935 5.3173 1.5
      vertex -0.241935 -5.3173 1.5
      vertex 0.241935 -5.3173 1.5
    endloop
  endfacet
  facet normal 0 0 1
    outer loop
      vertex -0.706205 5.45362 1.5
      vertex -0.241935 -5.3173 1.5
      vertex -0.241935 5.3173 1.5
    endloop
  endfacet
  facet normal 0 0 1
    outer loop
      vertex -0.706205 5.45362 1.5
      vertex -0.706205 -5.45362 1.5
      vertex -0.241935 -5.3173 1.5
    endloop
  endfacet
  facet normal 0 0 1
    outer loop
      vertex -11 0 1.5
      vertex -0.706205 5.45362 1.5
      vertex -1.11326 5.71523 1.5
    endloop
  endfacet
  facet normal 0 0 1
    outer loop
      vertex -0.706205 5.45362 1.5
      vertex -11 0 1.5
      vertex -0.706205 -5.45362 1.5
    endloop
  endfacet
  facet normal 0 0 1
    outer loop
      vertex -10.3366 3.76222 1.5
      vertex -1.11326 5.71523 1.5
      vertex -1.43013 6.08091 1.5
    endloop
  endfacet
  facet normal 0 0 1
    outer loop
      vertex -0.706205 -5.45362 1.5
      vertex -11 0 1.5
      vertex -1.11326 -5.71523 1.5
    endloop
  endfacet
  facet normal 0 0 1
    outer loop
      vertex -8.42649 7.07066 1.5
      vertex -1.43013 6.08091 1.5
      vertex -1.63114 6.52105 1.5
    endloop
  endfacet
  facet normal -0 -0 1
    outer loop
      vertex -10.8329 -1.91013 1.5
      vertex -1.11326 -5.71523 1.5
      vertex -11 0 1.5
    endloop
  endfacet
  facet normal 0 0 1
    outer loop
      vertex -7.07066 8.42649 1.5
      vertex -1.63114 6.52105 1.5
      vertex -1.7 7 1.5
    endloop
  endfacet
  facet normal -0 -0 1
    outer loop
      vertex -10.3366 -3.76222 1.5
      vertex -1.11326 -5.71523 1.5
      vertex -10.8329 -1.91013 1.5
    endloop
  endfacet
  facet normal 0 0 1
    outer loop
      vertex 9.52628 5.5 1.5
      vertex 1.43013 6.08091 1.5
      vertex 10.3366 3.76222 1.5
    endloop
  endfacet
  facet normal 0 0 1
    outer loop
      vertex 8.42649 7.07066 1.5
      vertex 1.43013 6.08091 1.5
      vertex 9.52628 5.5 1.5
    endloop
  endfacet
  facet normal -0 0 1
    outer loop
      vertex 1.11326 5.71523 1.5
      vertex 10.3366 3.76222 1.5
      vertex 1.43013 6.08091 1.5
    endloop
  endfacet
  facet normal 0 0 1
    outer loop
      vertex 1.43013 6.08091 1.5
      vertex 8.42649 7.07066 1.5
      vertex 1.63114 6.52105 1.5
    endloop
  endfacet
  facet normal 0 0 1
    outer loop
      vertex 11 0 1.5
      vertex 1.7 -7 1.5
      vertex 10.8329 -1.91013 1.5
    endloop
  endfacet
  facet normal 0 0 1
    outer loop
      vertex 7.07066 8.42649 1.5
      vertex 1.63114 6.52105 1.5
      vertex 8.42649 7.07066 1.5
    endloop
  endfacet
  facet normal 0 0 1
    outer loop
      vertex 10.8329 -1.91013 1.5
      vertex 1.7 -7 1.5
      vertex 10.3366 -3.76222 1.5
    endloop
  endfacet
  facet normal 0 0 1
    outer loop
      vertex 1.63114 6.52105 1.5
      vertex 7.07066 8.42649 1.5
      vertex 1.7 7 1.5
    endloop
  endfacet
  facet normal 0 0 1
    outer loop
      vertex 10.3366 -3.76222 1.5
      vertex 1.7 -7 1.5
      vertex 9.52628 -5.5 1.5
    endloop
  endfacet
  facet normal 0 0 1
    outer loop
      vertex 1.7 7 1.5
      vertex 7.07066 8.42649 1.5
      vertex 5.5 9.52628 1.5
    endloop
  endfacet
  facet normal 0 0 1
    outer loop
      vertex 9.52628 -5.5 1.5
      vertex 1.7 -7 1.5
      vertex 8.42649 -7.07066 1.5
    endloop
  endfacet
  facet normal 0 0 1
    outer loop
      vertex 1.63114 7.47894 1.5
      vertex 5.5 9.52628 1.5
      vertex 3.76222 10.3366 1.5
    endloop
  endfacet
  facet normal 0 0 1
    outer loop
      vertex 8.42649 -7.07066 1.5
      vertex 1.7 -7 1.5
      vertex 7.07066 -8.42649 1.5
    endloop
  endfacet
  facet normal 0 0 1
    outer loop
      vertex 1.11326 8.28477 1.5
      vertex 3.76222 10.3366 1.5
      vertex 1.91013 10.8329 1.5
    endloop
  endfacet
  facet normal 0 0 1
    outer loop
      vertex 7.07066 -8.42649 1.5
      vertex 1.7 -7 1.5
      vertex 5.5 -9.52628 1.5
    endloop
  endfacet
  facet normal -0 0 1
    outer loop
      vertex 1.63114 -7.47894 1.5
      vertex 5.5 -9.52628 1.5
      vertex 1.7 -7 1.5
    endloop
  endfacet
  facet normal 0 0 1
    outer loop
      vertex 5.5 9.52628 1.5
      vertex 1.63114 7.47894 1.5
      vertex 1.7 7 1.5
    endloop
  endfacet
  facet normal 0 0 1
    outer loop
      vertex 3.76222 10.3366 1.5
      vertex 1.43013 7.91909 1.5
      vertex 1.63114 7.47894 1.5
    endloop
  endfacet
  facet normal 0 0 1
    outer loop
      vertex 3.76222 10.3366 1.5
      vertex 1.11326 8.28477 1.5
      vertex 1.43013 7.91909 1.5
    endloop
  endfacet
  facet normal 0 0 1
    outer loop
      vertex 1.91013 10.8329 1.5
      vertex 0.706205 8.54637 1.5
      vertex 1.11326 8.28477 1.5
    endloop
  endfacet
  facet normal 0 0 1
    outer loop
      vertex 1.91013 10.8329 1.5
      vertex 0.241935 8.6827 1.5
      vertex 0.706205 8.54637 1.5
    endloop
  endfacet
  facet normal 0 0 1
    outer loop
      vertex 0 11 1.5
      vertex 0.241935 8.6827 1.5
      vertex 1.91013 10.8329 1.5
    endloop
  endfacet
  facet normal 0 0 1
    outer loop
      vertex 0 11 1.5
      vertex -0.241935 8.6827 1.5
      vertex 0.241935 8.6827 1.5
    endloop
  endfacet
  facet normal 0 0 1
    outer loop
      vertex 0 11 1.5
      vertex -0.706205 8.54637 1.5
      vertex -0.241935 8.6827 1.5
    endloop
  endfacet
  facet normal -0 0 1
    outer loop
      vertex -1.91013 10.8329 1.5
      vertex -0.706205 8.54637 1.5
      vertex 0 11 1.5
    endloop
  endfacet
  facet normal 0 0 1
    outer loop
      vertex -0.706205 8.54637 1.5
      vertex -1.91013 10.8329 1.5
      vertex -1.11326 8.28477 1.5
    endloop
  endfacet
  facet normal -0 0 1
    outer loop
      vertex -5.5 9.52628 1.5
      vertex -1.63114 7.47894 1.5
      vertex -3.76222 10.3366 1.5
    endloop
  endfacet
  facet normal 0 0 1
    outer loop
      vertex -1.43013 7.91909 1.5
      vertex -3.76222 10.3366 1.5
      vertex -1.63114 7.47894 1.5
    endloop
  endfacet
  facet normal 0 0 1
    outer loop
      vertex -1.11326 8.28477 1.5
      vertex -3.76222 10.3366 1.5
      vertex -1.43013 7.91909 1.5
    endloop
  endfacet
  facet normal -0 0 1
    outer loop
      vertex -3.76222 10.3366 1.5
      vertex -1.11326 8.28477 1.5
      vertex -1.91013 10.8329 1.5
    endloop
  endfacet
  facet normal 0 0 1
    outer loop
      vertex 5.5 -9.52628 1.5
      vertex 1.63114 -7.47894 1.5
      vertex 3.76222 -10.3366 1.5
    endloop
  endfacet
  facet normal -0 0 1
    outer loop
      vertex 1.43013 -7.91909 1.5
      vertex 3.76222 -10.3366 1.5
      vertex 1.63114 -7.47894 1.5
    endloop
  endfacet
  facet normal -0 0 1
    outer loop
      vertex 1.11326 -8.28477 1.5
      vertex 3.76222 -10.3366 1.5
      vertex 1.43013 -7.91909 1.5
    endloop
  endfacet
  facet normal 0 0 1
    outer loop
      vertex 3.76222 -10.3366 1.5
      vertex 1.11326 -8.28477 1.5
      vertex 1.91013 -10.8329 1.5
    endloop
  endfacet
  facet normal -0 0 1
    outer loop
      vertex 0.706205 -8.54637 1.5
      vertex 1.91013 -10.8329 1.5
      vertex 1.11326 -8.28477 1.5
    endloop
  endfacet
  facet normal -0 0 1
    outer loop
      vertex 0.241935 -8.6827 1.5
      vertex 1.91013 -10.8329 1.5
      vertex 0.706205 -8.54637 1.5
    endloop
  endfacet
  facet normal 0 0 1
    outer loop
      vertex 0.241935 -8.6827 1.5
      vertex 0 -11 1.5
      vertex 1.91013 -10.8329 1.5
    endloop
  endfacet
  facet normal -0 0 1
    outer loop
      vertex -0.241935 -8.6827 1.5
      vertex 0 -11 1.5
      vertex 0.241935 -8.6827 1.5
    endloop
  endfacet
  facet normal 0 0 1
    outer loop
      vertex -0.706205 -8.54637 1.5
      vertex 0 -11 1.5
      vertex -0.241935 -8.6827 1.5
    endloop
  endfacet
  facet normal 0 0 1
    outer loop
      vertex -1.91013 -10.8329 1.5
      vertex -0.706205 -8.54637 1.5
      vertex -1.11326 -8.28477 1.5
    endloop
  endfacet
  facet normal 0 0 1
    outer loop
      vertex -3.76222 -10.3366 1.5
      vertex -1.11326 -8.28477 1.5
      vertex -1.43013 -7.91909 1.5
    endloop
  endfacet
  facet normal 0 0 1
    outer loop
      vertex -0.706205 -8.54637 1.5
      vertex -1.91013 -10.8329 1.5
      vertex 0 -11 1.5
    endloop
  endfacet
  facet normal 0 0 1
    outer loop
      vertex -3.76222 -10.3366 1.5
      vertex -1.43013 -7.91909 1.5
      vertex -1.63114 -7.47894 1.5
    endloop
  endfacet
  facet normal 0 0 1
    outer loop
      vertex -5.5 -9.52628 1.5
      vertex -1.63114 -7.47894 1.5
      vertex -1.7 -7 1.5
    endloop
  endfacet
  facet normal 0 0 1
    outer loop
      vertex -1.63114 7.47894 1.5
      vertex -5.5 9.52628 1.5
      vertex -1.7 7 1.5
    endloop
  endfacet
  facet normal -0 0 1
    outer loop
      vertex -7.07066 8.42649 1.5
      vertex -1.7 7 1.5
      vertex -5.5 9.52628 1.5
    endloop
  endfacet
  facet normal 0 0 1
    outer loop
      vertex -1.11326 -8.28477 1.5
      vertex -3.76222 -10.3366 1.5
      vertex -1.91013 -10.8329 1.5
    endloop
  endfacet
  facet normal 0 0 1
    outer loop
      vertex -1.63114 6.52105 1.5
      vertex -7.07066 8.42649 1.5
      vertex -8.42649 7.07066 1.5
    endloop
  endfacet
  facet normal 0 0 1
    outer loop
      vertex -1.63114 -7.47894 1.5
      vertex -5.5 -9.52628 1.5
      vertex -3.76222 -10.3366 1.5
    endloop
  endfacet
  facet normal 0 0 1
    outer loop
      vertex -1.43013 6.08091 1.5
      vertex -8.42649 7.07066 1.5
      vertex -9.52628 5.5 1.5
    endloop
  endfacet
  facet normal 0 0 1
    outer loop
      vertex -1.7 -7 1.5
      vertex -7.07066 -8.42649 1.5
      vertex -5.5 -9.52628 1.5
    endloop
  endfacet
  facet normal 0 0 1
    outer loop
      vertex -1.43013 6.08091 1.5
      vertex -9.52628 5.5 1.5
      vertex -10.3366 3.76222 1.5
    endloop
  endfacet
  facet normal 0 0 1
    outer loop
      vertex -1.63114 -6.52105 1.5
      vertex -7.07066 -8.42649 1.5
      vertex -1.7 -7 1.5
    endloop
  endfacet
  facet normal 0 0 1
    outer loop
      vertex -1.11326 5.71523 1.5
      vertex -10.3366 3.76222 1.5
      vertex -10.8329 1.91013 1.5
    endloop
  endfacet
  facet normal 0 -0 1
    outer loop
      vertex -7.07066 -8.42649 1.5
      vertex -1.63114 -6.52105 1.5
      vertex -8.42649 -7.07066 1.5
    endloop
  endfacet
  facet normal 0 0 1
    outer loop
      vertex -1.11326 5.71523 1.5
      vertex -10.8329 1.91013 1.5
      vertex -11 0 1.5
    endloop
  endfacet
  facet normal 0 0 1
    outer loop
      vertex -1.43013 -6.08091 1.5
      vertex -8.42649 -7.07066 1.5
      vertex -1.63114 -6.52105 1.5
    endloop
  endfacet
  facet normal 0 0 1
    outer loop
      vertex -1.11326 -5.71523 1.5
      vertex -10.3366 -3.76222 1.5
      vertex -1.43013 -6.08091 1.5
    endloop
  endfacet
  facet normal 0 -0 1
    outer loop
      vertex -8.42649 -7.07066 1.5
      vertex -1.43013 -6.08091 1.5
      vertex -9.52628 -5.5 1.5
    endloop
  endfacet
  facet normal -0 -0 1
    outer loop
      vertex -9.52628 -5.5 1.5
      vertex -1.43013 -6.08091 1.5
      vertex -10.3366 -3.76222 1.5
    endloop
  endfacet
  facet normal -0.422619 0.906308 0
    outer loop
      vertex -3.76222 10.3366 -1.5
      vertex -5.5 9.52628 1.5
      vertex -3.76222 10.3366 1.5
    endloop
  endfacet
  facet normal -0.422619 0.906308 0
    outer loop
      vertex -5.5 9.52628 1.5
      vertex -3.76222 10.3366 -1.5
      vertex -5.5 9.52628 -1.5
    endloop
  endfacet
  facet normal -0.087156 0.996195 0
    outer loop
      vertex 0 11 -1.5
      vertex -1.91013 10.8329 1.5
      vertex 0 11 1.5
    endloop
  endfacet
  facet normal -0.087156 0.996195 0
    outer loop
      vertex -1.91013 10.8329 1.5
      vertex 0 11 -1.5
      vertex -1.91013 10.8329 -1.5
    endloop
  endfacet
  facet normal 0.087156 -0.996195 0
    outer loop
      vertex 0 -11 -1.5
      vertex 1.91013 -10.8329 1.5
      vertex 0 -11 1.5
    endloop
  endfacet
  facet normal 0.087156 -0.996195 0
    outer loop
      vertex 1.91013 -10.8329 1.5
      vertex 0 -11 -1.5
      vertex 1.91013 -10.8329 -1.5
    endloop
  endfacet
  facet normal -0.258819 -0.965926 0
    outer loop
      vertex -3.76222 -10.3366 -1.5
      vertex -1.91013 -10.8329 1.5
      vertex -3.76222 -10.3366 1.5
    endloop
  endfacet
  facet normal -0.258819 -0.965926 -0
    outer loop
      vertex -1.91013 -10.8329 1.5
      vertex -3.76222 -10.3366 -1.5
      vertex -1.91013 -10.8329 -1.5
    endloop
  endfacet
  facet normal -0.906308 -0.422618 0
    outer loop
      vertex -9.52628 -5.5 -1.5
      vertex -10.3366 -3.76222 1.5
      vertex -10.3366 -3.76222 -1.5
    endloop
  endfacet
  facet normal -0.906308 -0.422618 0
    outer loop
      vertex -10.3366 -3.76222 1.5
      vertex -9.52628 -5.5 -1.5
      vertex -9.52628 -5.5 1.5
    endloop
  endfacet
  facet normal -0.996195 -0.087156 0
    outer loop
      vertex -10.8329 -1.91013 -1.5
      vertex -11 0 1.5
      vertex -11 0 -1.5
    endloop
  endfacet
  facet normal -0.996195 -0.087156 0
    outer loop
      vertex -11 0 1.5
      vertex -10.8329 -1.91013 -1.5
      vertex -10.8329 -1.91013 1.5
    endloop
  endfacet
  facet normal -0.819152 0.573577 0
    outer loop
      vertex -9.52628 5.5 -1.5
      vertex -8.42649 7.07066 1.5
      vertex -8.42649 7.07066 -1.5
    endloop
  endfacet
  facet normal -0.819152 0.573577 0
    outer loop
      vertex -8.42649 7.07066 1.5
      vertex -9.52628 5.5 -1.5
      vertex -9.52628 5.5 1.5
    endloop
  endfacet
  facet normal -0.707107 0.707107 0
    outer loop
      vertex -8.42649 7.07066 -1.5
      vertex -7.07066 8.42649 1.5
      vertex -7.07066 8.42649 -1.5
    endloop
  endfacet
  facet normal -0.707107 0.707107 0
    outer loop
      vertex -7.07066 8.42649 1.5
      vertex -8.42649 7.07066 -1.5
      vertex -8.42649 7.07066 1.5
    endloop
  endfacet
  facet normal 0.996195 -0.087156 0
    outer loop
      vertex 10.8329 -1.91013 1.5
      vertex 11 0 -1.5
      vertex 11 0 1.5
    endloop
  endfacet
  facet normal 0.996195 -0.087156 0
    outer loop
      vertex 11 0 -1.5
      vertex 10.8329 -1.91013 1.5
      vertex 10.8329 -1.91013 -1.5
    endloop
  endfacet
  facet normal 0.258819 -0.965926 0
    outer loop
      vertex 1.91013 -10.8329 -1.5
      vertex 3.76222 -10.3366 1.5
      vertex 1.91013 -10.8329 1.5
    endloop
  endfacet
  facet normal 0.258819 -0.965926 0
    outer loop
      vertex 3.76222 -10.3366 1.5
      vertex 1.91013 -10.8329 -1.5
      vertex 3.76222 -10.3366 -1.5
    endloop
  endfacet
  facet normal 0.422619 -0.906308 0
    outer loop
      vertex 3.76222 -10.3366 -1.5
      vertex 5.5 -9.52628 1.5
      vertex 3.76222 -10.3366 1.5
    endloop
  endfacet
  facet normal 0.422619 -0.906308 0
    outer loop
      vertex 5.5 -9.52628 1.5
      vertex 3.76222 -10.3366 -1.5
      vertex 5.5 -9.52628 -1.5
    endloop
  endfacet
  facet normal 0.906308 -0.422619 0
    outer loop
      vertex 9.52628 -5.5 1.5
      vertex 10.3366 -3.76222 -1.5
      vertex 10.3366 -3.76222 1.5
    endloop
  endfacet
  facet normal 0.906308 -0.422619 0
    outer loop
      vertex 10.3366 -3.76222 -1.5
      vertex 9.52628 -5.5 1.5
      vertex 9.52628 -5.5 -1.5
    endloop
  endfacet
  facet normal 0.819152 -0.573576 0
    outer loop
      vertex 8.42649 -7.07066 1.5
      vertex 9.52628 -5.5 -1.5
      vertex 9.52628 -5.5 1.5
    endloop
  endfacet
  facet normal 0.819152 -0.573576 0
    outer loop
      vertex 9.52628 -5.5 -1.5
      vertex 8.42649 -7.07066 1.5
      vertex 8.42649 -7.07066 -1.5
    endloop
  endfacet
  facet normal 0.965926 -0.258819 0
    outer loop
      vertex 10.3366 -3.76222 1.5
      vertex 10.8329 -1.91013 -1.5
      vertex 10.8329 -1.91013 1.5
    endloop
  endfacet
  facet normal 0.965926 -0.258819 0
    outer loop
      vertex 10.8329 -1.91013 -1.5
      vertex 10.3366 -3.76222 1.5
      vertex 10.3366 -3.76222 -1.5
    endloop
  endfacet
  facet normal -0.707107 -0.707107 0
    outer loop
      vertex -7.07066 -8.42649 -1.5
      vertex -8.42649 -7.07066 1.5
      vertex -8.42649 -7.07066 -1.5
    endloop
  endfacet
  facet normal -0.707107 -0.707107 0
    outer loop
      vertex -8.42649 -7.07066 1.5
      vertex -7.07066 -8.42649 -1.5
      vertex -7.07066 -8.42649 1.5
    endloop
  endfacet
  facet normal -0.422618 -0.906308 0
    outer loop
      vertex -5.5 -9.52628 -1.5
      vertex -3.76222 -10.3366 1.5
      vertex -5.5 -9.52628 1.5
    endloop
  endfacet
  facet normal -0.422618 -0.906308 -0
    outer loop
      vertex -3.76222 -10.3366 1.5
      vertex -5.5 -9.52628 -1.5
      vertex -3.76222 -10.3366 -1.5
    endloop
  endfacet
  facet normal -0.819152 -0.573577 0
    outer loop
      vertex -8.42649 -7.07066 -1.5
      vertex -9.52628 -5.5 1.5
      vertex -9.52628 -5.5 -1.5
    endloop
  endfacet
  facet normal -0.819152 -0.573577 0
    outer loop
      vertex -9.52628 -5.5 1.5
      vertex -8.42649 -7.07066 -1.5
      vertex -8.42649 -7.07066 1.5
    endloop
  endfacet
  facet normal -0.965926 -0.258819 0
    outer loop
      vertex -10.3366 -3.76222 -1.5
      vertex -10.8329 -1.91013 1.5
      vertex -10.8329 -1.91013 -1.5
    endloop
  endfacet
  facet normal -0.965926 -0.258819 0
    outer loop
      vertex -10.8329 -1.91013 1.5
      vertex -10.3366 -3.76222 -1.5
      vertex -10.3366 -3.76222 1.5
    endloop
  endfacet
  facet normal 0.573576 -0.819152 0
    outer loop
      vertex 5.5 -9.52628 -1.5
      vertex 7.07066 -8.42649 1.5
      vertex 5.5 -9.52628 1.5
    endloop
  endfacet
  facet normal 0.573576 -0.819152 0
    outer loop
      vertex 7.07066 -8.42649 1.5
      vertex 5.5 -9.52628 -1.5
      vertex 7.07066 -8.42649 -1.5
    endloop
  endfacet
  facet normal -0.573577 -0.819152 0
    outer loop
      vertex -7.07066 -8.42649 -1.5
      vertex -5.5 -9.52628 1.5
      vertex -7.07066 -8.42649 1.5
    endloop
  endfacet
  facet normal -0.573577 -0.819152 -0
    outer loop
      vertex -5.5 -9.52628 1.5
      vertex -7.07066 -8.42649 -1.5
      vertex -5.5 -9.52628 -1.5
    endloop
  endfacet
endsolid OpenSCAD_Model
